<?xml version="1.0" standalone="no"?>
<!DOCTYPE svg PUBLIC "-//W3C//DTD SVG 20010904//EN"
 "http://www.w3.org/TR/2001/REC-SVG-20010904/DTD/svg10.dtd">
<svg version="1.0" xmlns="http://www.w3.org/2000/svg"
 width="500.000000pt" height="500.000000pt" viewBox="0 0 500.000000 500.000000"
 preserveAspectRatio="xMidYMid meet">

<g transform="translate(0.000000,500.000000) scale(0.100000,-0.100000)"
fill="#000000" stroke="none">
<path d="M2340 4132 c0 -44 3 -127 7 -186 l6 -107 91 3 c77 3 91 6 94 21 3 15
-5 17 -71 17 l-75 0 -7 165 c-7 152 -9 165 -26 165 -17 0 -19 -8 -19 -78z"/>
<path d="M2761 4007 c-109 -148 -117 -163 -99 -170 12 -4 22 -6 23 -5 1 2 15
21 30 43 16 22 30 41 31 43 1 2 38 -6 82 -18 l80 -22 7 -53 c5 -41 11 -54 26
-58 25 -7 25 1 -6 213 -14 95 -25 173 -25 175 0 2 -7 5 -15 8 -10 4 -51 -44
-134 -156z m133 -26 l7 -59 -61 15 c-41 11 -59 20 -56 28 2 7 24 40 48 73 l43
60 6 -29 c4 -15 9 -55 13 -88z"/>
<path d="M3209 3913 c-77 -119 -94 -163 -79 -208 18 -55 86 -105 142 -105 52
0 87 31 163 148 66 103 73 118 60 131 -18 18 -9 27 -88 -95 -90 -140 -122
-162 -187 -129 -73 38 -68 90 20 227 39 60 68 114 65 119 -15 23 -37 2 -96
-88z"/>
<path d="M1501 3906 c-9 -11 7 -36 79 -122 49 -59 89 -109 87 -110 -1 -1 -76
11 -167 27 -178 31 -220 35 -220 19 0 -16 223 -280 237 -280 32 0 17 29 -65
128 -50 59 -87 108 -82 110 4 1 88 -11 186 -27 106 -18 182 -27 188 -21 5 5 1
19 -10 34 -45 59 -210 255 -215 255 -4 1 -12 -5 -18 -13z"/>
<path d="M1907 3767 c-22 -15 -13 -47 13 -47 26 0 30 11 16 38 -10 19 -14 20
-29 9z"/>
<path d="M3571 3558 c-127 -98 -141 -112 -128 -125 13 -14 27 -6 127 71 62 48
114 85 115 84 2 -2 -15 -86 -37 -187 -26 -120 -36 -187 -30 -193 7 -7 61 29
157 102 131 100 145 114 132 128 -14 13 -27 6 -119 -65 -57 -43 -108 -82 -114
-86 -6 -3 7 74 28 171 42 197 43 212 26 212 -7 -1 -78 -51 -157 -112z"/>
<path d="M1081 3432 c-57 -28 -94 -83 -99 -146 -2 -29 1 -70 7 -89 21 -63 113
-127 181 -127 34 0 91 22 121 47 64 54 85 143 50 219 -18 40 -78 97 -92 88
-10 -6 -89 -151 -89 -162 0 -6 6 -12 14 -15 10 -4 26 14 51 59 40 71 50 72 81
13 28 -55 13 -119 -40 -168 -37 -35 -127 -41 -174 -12 -67 42 -90 125 -56 197
19 39 69 74 107 74 16 0 31 8 37 20 10 18 8 20 -27 20 -21 0 -53 -8 -72 -18z"/>
<path d="M3845 3116 c-43 -19 -92 -78 -106 -128 -14 -53 0 -117 36 -164 24
-31 109 -73 121 -61 13 12 -6 37 -39 51 -50 20 -81 69 -81 128 0 78 58 138
141 145 119 10 195 -109 135 -211 -34 -57 -11 -90 26 -38 41 57 47 137 14 197
-16 30 -64 72 -95 84 -38 15 -115 13 -152 -3z"/>
<path d="M834 2925 c-4 -9 -4 -19 0 -22 3 -3 83 -25 178 -48 147 -36 174 -40
182 -28 4 8 4 18 0 23 -5 4 -79 24 -164 44 -85 20 -163 39 -173 42 -10 3 -20
-1 -23 -11z"/>
<path d="M838 2634 c-96 -51 -63 -214 43 -214 51 0 74 23 106 105 33 81 62
101 107 71 22 -14 26 -24 26 -61 0 -45 -27 -85 -57 -85 -7 0 -13 -9 -13 -20 0
-31 37 -25 76 14 29 29 34 41 34 80 0 84 -35 126 -105 126 -45 0 -75 -29 -100
-95 -10 -28 -29 -61 -41 -75 -20 -20 -28 -23 -51 -14 -53 18 -56 106 -5 129
13 6 22 19 22 32 0 27 -5 28 -42 7z"/>
<path d="M3800 2572 c0 -23 33 -32 117 -32 l54 0 -3 -97 -3 -98 -87 3 c-82 4
-88 3 -88 -16 0 -24 25 -28 233 -38 132 -6 137 -6 137 14 0 17 -9 20 -77 26
l-78 7 5 96 5 96 83 -2 c75 -2 82 -1 82 17 0 18 -10 20 -107 26 -60 4 -145 9
-190 12 -78 6 -83 5 -83 -14z"/>
<path d="M1146 2261 c-3 -4 3 -39 14 -77 11 -38 20 -72 20 -75 0 -3 -21 -11
-47 -17 -27 -6 -55 -13 -64 -17 -13 -5 -20 7 -35 64 -14 55 -22 71 -36 71 -22
0 -22 -12 -2 -79 8 -29 13 -58 11 -65 -6 -14 -99 -38 -108 -28 -3 4 -14 37
-23 73 -15 57 -20 66 -37 62 -10 -3 -19 -6 -19 -7 0 -8 50 -179 54 -183 4 -4
344 85 354 93 2 1 -9 45 -24 98 -24 88 -42 114 -58 87z"/>
<path d="M3737 2121 c-6 -24 0 -31 25 -31 23 0 36 29 17 41 -22 14 -36 10 -42
-10z"/>
<path d="M1175 1858 c-51 -18 -97 -59 -118 -107 -18 -40 -19 -52 -9 -98 8 -40
59 -138 87 -171 2 -2 73 43 158 98 l156 102 -26 41 c-73 119 -160 166 -248
135z m125 -53 c34 -17 96 -103 84 -114 -5 -5 -60 -41 -122 -81 -107 -69 -114
-72 -127 -54 -50 66 -61 141 -29 195 36 61 129 87 194 54z"/>
<path d="M1543 1551 c-10 -16 -9 -22 3 -32 12 -10 18 -9 31 4 13 13 14 19 3
31 -16 21 -23 20 -37 -3z"/>
<path d="M3352 1523 c-31 -6 -89 -64 -97 -96 -14 -55 18 -110 71 -123 16 -4
53 2 99 16 57 18 76 20 93 11 39 -21 36 -75 -7 -108 -20 -16 -64 -16 -79 -1
-8 8 -15 8 -28 -3 -15 -12 -14 -15 6 -31 37 -30 94 -24 138 16 33 30 37 40 37
81 0 39 -5 51 -28 71 -33 28 -67 30 -128 8 -60 -21 -95 -21 -119 1 -28 25 -25
52 9 86 30 30 86 40 107 19 7 -7 16 -6 29 4 18 13 18 14 -6 29 -29 19 -66 26
-97 20z"/>
<path d="M1707 1423 c-14 -13 -6 -22 46 -52 28 -17 58 -35 66 -40 11 -7 8 -19
-18 -65 -18 -31 -34 -56 -36 -56 -2 0 -31 17 -65 37 -51 30 -63 34 -71 22 -13
-21 -13 -22 51 -57 33 -18 60 -37 60 -42 0 -6 -13 -30 -28 -55 l-28 -44 -64
38 c-58 35 -65 37 -76 22 -7 -9 -12 -17 -11 -17 12 -10 161 -94 166 -94 5 0
176 280 189 310 3 7 -151 100 -166 100 -5 0 -12 -3 -15 -7z"/>
<path d="M2975 1295 c-5 -2 -22 -6 -37 -9 -57 -13 -128 -98 -128 -155 0 -14 5
-18 20 -14 11 3 20 10 20 15 0 6 8 26 17 45 48 101 203 97 255 -7 66 -131 -66
-265 -194 -196 -26 14 -39 16 -53 9 -16 -10 -14 -13 21 -36 71 -46 146 -44
217 5 105 74 86 262 -33 323 -27 13 -89 25 -105 20z"/>
<path d="M2016 1255 c-4 -11 8 -19 46 -30 29 -8 57 -15 64 -15 7 0 15 -4 18
-9 3 -4 -13 -75 -35 -156 -40 -146 -43 -175 -16 -175 9 0 29 57 61 176 26 97
45 178 43 180 -7 7 -140 44 -158 44 -9 0 -19 -7 -23 -15z"/>
<path d="M2344 1183 c4 -10 39 -93 79 -185 50 -117 77 -168 88 -168 11 0 31
40 69 138 29 75 61 158 71 185 l19 47 -23 0 c-18 0 -26 -10 -40 -50 l-18 -50
-83 0 -83 0 -21 50 c-16 38 -26 50 -43 50 -16 0 -20 -4 -15 -17z m224 -135
c-3 -7 -16 -43 -29 -80 -13 -38 -26 -68 -29 -68 -3 0 -13 19 -22 43 -9 23 -23
59 -32 80 l-16 37 66 0 c49 0 65 -3 62 -12z"/>
</g>
</svg>
