<?xml version="1.0" standalone="no"?>
<!DOCTYPE svg PUBLIC "-//W3C//DTD SVG 20010904//EN"
 "http://www.w3.org/TR/2001/REC-SVG-20010904/DTD/svg10.dtd">
<svg version="1.0" xmlns="http://www.w3.org/2000/svg"
 width="149.000000pt" height="258.000000pt" viewBox="0 0 149.000000 258.000000"
 preserveAspectRatio="xMidYMid meet">

<g transform="translate(0.000000,258.000000) scale(0.100000,-0.100000)"
fill="#000000" stroke="none">
<path d="M1205 2511 c-77 -16 -176 -32 -220 -35 -44 -4 -125 -16 -180 -26 -55
-11 -147 -27 -204 -35 -57 -9 -107 -18 -111 -20 -9 -5 8 -100 39 -220 11 -44
25 -118 31 -165 12 -96 35 -176 54 -187 7 -5 16 -15 19 -23 4 -12 6 -12 6 2 1
13 15 18 69 23 37 3 112 15 167 25 55 11 132 24 170 30 220 32 425 74 425 86
0 8 -62 128 -107 205 -39 69 -43 82 -37 120 9 67 35 212 40 232 7 21 9 22
-161 -12z m145 0 c0 -5 -6 -44 -14 -87 -31 -168 -31 -183 6 -240 39 -61 114
-212 107 -218 -4 -4 -295 -59 -379 -71 -25 -3 -91 -15 -148 -26 -134 -26 -293
-41 -307 -29 -15 12 -32 83 -50 212 -9 59 -22 125 -29 145 -16 46 -41 181 -35
188 3 2 52 11 110 20 57 8 149 24 204 34 55 11 134 22 175 26 41 3 127 16 190
29 127 26 170 30 170 17z"/>
<path d="M550 2298 c10 -29 25 -97 35 -151 10 -54 20 -96 22 -93 11 11 -53
296 -67 296 -4 0 0 -24 10 -52z"/>
<path d="M1116 2329 c-22 -18 -26 -18 -26 -4 0 11 -6 15 -17 11 -10 -2 -53
-12 -95 -21 -59 -13 -78 -21 -78 -34 0 -13 -2 -13 -9 -2 -7 11 -18 11 -65 0
-31 -7 -56 -16 -56 -20 0 -4 5 -30 11 -58 10 -49 10 -49 42 -41 18 4 44 11 60
14 15 4 27 13 27 21 0 18 3 17 -38 6 -17 -5 -32 -6 -32 -1 0 4 9 10 20 13 30
8 25 30 -5 25 -14 -3 -25 -2 -25 2 0 4 17 11 38 15 20 3 46 9 58 11 18 5 22 0
28 -36 5 -32 10 -41 22 -36 9 3 20 6 26 6 7 0 9 17 6 45 -5 37 -3 45 11 46 9
0 24 2 34 4 14 3 16 -1 12 -16 -8 -25 -1 -24 25 3 11 12 20 16 20 10 0 -7 14
-12 34 -12 19 0 38 -5 42 -11 4 -8 -3 -9 -22 -5 -16 3 -35 2 -43 -3 -11 -7 -9
-11 8 -21 26 -14 95 -5 111 15 14 17 3 42 -23 50 -19 6 -20 8 -4 12 14 4 16 8
6 19 -17 21 -72 17 -103 -7z m71 -15 c-3 -3 -12 -4 -19 -1 -8 3 -5 6 6 6 11 1
17 -2 13 -5z"/>
<path d="M644 2213 c3 -21 6 -46 6 -55 0 -19 38 -24 99 -12 45 9 42 37 -4 32
-37 -4 -45 4 -45 48 0 20 -5 24 -31 24 -31 0 -31 -1 -25 -37z"/>
<path d="M1180 2203 c-8 -3 -23 -15 -32 -27 -16 -19 -18 -19 -18 -3 0 14 -6
18 -27 15 -18 -2 -27 -9 -26 -18 11 -102 13 -107 38 -102 16 3 25 11 25 23 0
23 16 25 24 4 4 -11 13 -14 33 -9 39 9 39 11 13 39 -20 21 -22 28 -12 50 17
38 16 40 -18 28z"/>
<path d="M971 2162 c-23 -4 -23 -6 -17 -65 l7 -62 -32 50 c-17 28 -32 51 -34
53 -1 1 -16 -1 -32 -4 -27 -5 -33 -13 -42 -49 -6 -23 -13 -50 -17 -59 -5 -12
0 -16 20 -16 14 0 26 4 26 9 0 12 43 22 53 12 7 -7 31 -3 155 24 12 3 22 13
22 21 0 13 -7 15 -35 11 -33 -5 -35 -4 -36 21 -1 42 -12 57 -38 54z m-91 -92
c0 -5 -4 -10 -10 -10 -5 0 -10 5 -10 10 0 6 5 10 10 10 6 0 10 -4 10 -10z"/>
<path d="M708 2113 c-41 -4 -48 -7 -48 -25 0 -16 4 -19 24 -14 22 5 25 2 31
-34 6 -36 10 -40 36 -40 28 0 29 1 22 45 -5 41 -4 45 16 45 12 0 21 6 21 15 0
15 -2 16 -102 8z"/>
<path d="M630 1876 c0 -8 4 -17 9 -20 5 -4 7 3 4 14 -6 23 -13 26 -13 6z"/>
<path d="M611 1794 c0 -11 3 -14 6 -6 3 7 2 16 -1 19 -3 4 -6 -2 -5 -13z"/>
<path d="M641 1764 c0 -11 3 -14 6 -6 3 7 2 16 -1 19 -3 4 -6 -2 -5 -13z"/>
<path d="M622 1750 c0 -14 2 -19 5 -12 2 6 2 18 0 25 -3 6 -5 1 -5 -13z"/>
<path d="M652 1710 c0 -14 2 -19 5 -12 2 6 2 18 0 25 -3 6 -5 1 -5 -13z"/>
<path d="M632 1680 c0 -19 2 -27 5 -17 2 9 2 25 0 35 -3 9 -5 1 -5 -18z"/>
<path d="M664 1638 c2 -21 1 -38 -5 -38 -5 0 -10 10 -10 23 -1 13 -3 16 -5 7
-3 -9 -15 -20 -27 -25 -12 -6 -41 -39 -64 -75 -24 -36 -58 -79 -77 -96 -50
-47 -84 -95 -101 -145 -9 -24 -45 -112 -80 -195 -92 -212 -108 -297 -130 -679
-2 -33 -15 -95 -29 -138 -14 -43 -26 -85 -26 -95 0 -9 -16 -54 -34 -99 -19
-46 -33 -83 -30 -83 11 0 56 108 69 165 9 37 25 92 36 123 35 101 36 107 25
124 -7 12 -7 30 2 63 7 25 12 80 12 123 0 90 30 273 58 352 11 30 38 98 62
150 23 52 53 125 67 163 14 37 32 67 39 67 7 0 10 8 8 18 -7 23 109 133 127
121 7 -4 22 -1 34 7 26 17 64 84 58 102 -3 6 0 12 6 12 19 0 31 -38 31 -97 0
-52 -3 -61 -31 -87 -37 -35 -51 -69 -43 -102 8 -29 -19 -43 -48 -25 -11 7 -22
10 -25 7 -3 -2 4 -11 16 -18 27 -17 26 -38 -7 -128 l-27 -75 -82 -40 c-46 -22
-83 -43 -83 -47 0 -7 43 10 134 52 l49 24 18 -22 c9 -12 22 -55 28 -94 6 -40
16 -103 23 -140 9 -58 9 -74 -5 -110 -21 -53 -13 -64 9 -12 17 40 16 64 -6
224 -13 99 -26 136 -51 154 -19 13 -18 16 8 91 l28 77 53 -5 c36 -4 52 -2 53
6 0 7 5 -3 10 -21 11 -36 29 -34 29 3 0 17 11 29 41 44 23 12 43 20 45 19 2
-2 -25 -34 -60 -71 -104 -110 -155 -236 -113 -279 7 -7 19 -33 27 -58 8 -25
36 -90 62 -146 26 -56 48 -107 48 -114 0 -7 3 -11 6 -7 3 3 -1 27 -10 53 -9
26 -16 48 -16 48 0 1 15 2 32 3 18 2 45 12 60 23 15 11 31 20 35 20 4 0 30
-16 57 -35 27 -19 52 -32 55 -29 3 4 1 9 -6 11 -6 2 -31 20 -56 39 l-45 35 21
34 c21 33 24 34 77 29 56 -4 58 -1 7 11 l-29 6 41 29 c23 17 41 35 41 40 0 5
-21 -6 -47 -26 -32 -24 -54 -34 -70 -31 -19 3 -22 1 -18 -13 9 -29 -79 -131
-112 -130 -4 1 4 8 20 16 15 8 27 23 27 34 0 21 -42 58 -76 66 -20 5 -21 8 -8
32 8 15 14 34 14 43 0 9 10 28 21 43 l21 27 27 -23 26 -23 -23 26 -23 26 54
42 c93 71 133 54 173 -78 17 -56 18 -110 3 -148 -7 -15 -15 -55 -20 -88 -5
-44 -13 -63 -28 -74 -12 -7 -21 -21 -21 -31 0 -10 -7 -23 -16 -31 -9 -7 -31
-42 -49 -78 -18 -36 -59 -104 -90 -150 -33 -50 -61 -104 -67 -132 -7 -32 -20
-54 -35 -64 -12 -8 -29 -28 -37 -43 -18 -36 -36 -102 -27 -102 4 0 12 20 19
45 6 25 27 62 46 82 19 21 39 57 45 81 7 23 41 87 76 142 36 55 76 123 88 152
13 29 31 59 40 67 10 7 17 19 17 26 0 7 9 19 21 26 15 11 22 30 29 79 4 36 13
78 19 93 6 16 11 47 11 71 0 53 -35 158 -60 181 -18 16 -18 18 6 62 35 66 33
122 -7 168 -17 19 -37 35 -45 35 -9 0 -14 12 -14 35 0 20 -6 48 -14 63 -23 43
-80 93 -111 96 -25 3 -30 9 -40 50 -18 70 -45 101 -86 100 -19 0 -38 5 -42 10
-5 6 -6 -6 -3 -26z m79 -6 c20 -22 47 -85 47 -109 0 -14 -64 -63 -83 -63 -3 0
-7 21 -11 48 -3 26 -9 64 -12 86 -9 53 25 75 59 38z m-116 -53 c23 -23 -48
-117 -75 -100 -11 6 -6 20 18 60 34 54 39 58 57 40z m274 -130 c40 -43 55 -84
44 -119 -3 -11 -14 -20 -23 -20 -9 0 -32 -9 -51 -21 -22 -13 -37 -17 -43 -11
-7 7 -3 12 10 16 19 6 61 46 49 46 -4 0 -36 -20 -71 -45 -54 -37 -73 -45 -110
-45 -36 0 -48 5 -65 26 -44 56 -13 115 97 184 70 44 115 41 163 -11z m103
-176 c14 -14 29 -37 32 -50 15 -57 -29 -156 -65 -146 -12 3 -33 -4 -51 -17
-17 -12 -37 -23 -46 -24 -8 -1 -33 -24 -55 -52 -54 -66 -66 -74 -110 -74 -43
0 -69 21 -69 55 0 22 1 22 34 -11 41 -41 67 -43 95 -8 28 36 26 68 -5 93 -34
27 -62 27 -92 -1 -25 -23 -25 -22 4 31 34 64 153 189 204 213 52 26 93 23 124
-9z m-331 -44 c8 -6 -72 11 -82 17 -1 2 3 9 10 17 12 13 17 13 39 -6 14 -12
29 -25 33 -28z m82 -202 c22 -19 25 -26 17 -47 -17 -44 -36 -54 -71 -36 -43
23 -50 54 -17 83 33 28 38 29 71 0z m6 -139 c-27 -69 -49 -109 -55 -99 -4 6
-13 33 -20 60 l-13 50 28 -6 c15 -3 35 0 46 6 24 14 24 14 14 -11z m68 -112
c20 -24 -4 -48 -43 -44 -33 3 -42 21 -32 64 6 23 8 24 34 10 16 -8 34 -22 41
-30z m-62 -64 c-11 -5 -37 18 -37 34 0 9 8 5 23 -9 12 -12 18 -24 14 -25z"/>
<path d="M838 1442 c15 -15 29 -26 31 -25 6 4 -41 53 -50 53 -4 0 4 -13 19
-28z"/>
<path d="M661 1384 c-17 -14 -31 -30 -31 -36 0 -19 71 -78 95 -78 27 0 55 38
55 74 0 31 -36 66 -66 66 -12 0 -36 -12 -53 -26z m89 -4 c25 -25 25 -51 0 -81
-16 -19 -21 -21 -29 -10 -5 7 -13 11 -19 7 -6 -3 -14 -1 -18 5 -5 8 -3 9 7 4
8 -5 1 5 -14 21 l-29 29 27 22 c32 28 49 29 75 3z"/>
<path d="M780 1180 c8 -6 24 -15 35 -21 16 -8 15 -6 -4 10 -13 12 -28 21 -35
21 -6 0 -4 -5 4 -10z"/>
<path d="M974 1145 c-10 -8 -15 -15 -9 -15 10 0 -59 -50 -70 -50 -3 0 -3 5 0
10 3 6 1 10 -4 10 -6 0 -11 -6 -11 -14 0 -8 -3 -22 -6 -31 -5 -11 11 -4 40 19
26 20 51 36 56 36 4 0 15 11 24 25 18 28 10 33 -20 10z"/>
<path d="M809 907 c8 -9 16 -15 19 -12 3 3 17 -2 31 -12 l26 -16 -19 22 c-11
12 -25 20 -32 17 -6 -2 -18 1 -25 7 -10 10 -10 8 0 -6z"/>
<path d="M295 881 c-53 -25 -43 -26 20 -1 28 10 43 19 35 19 -8 0 -33 -8 -55
-18z"/>
<path d="M560 599 c0 -16 -91 -116 -129 -142 -14 -9 -22 -19 -19 -22 3 -3 37
24 76 60 66 62 92 98 78 112 -3 4 -6 0 -6 -8z"/>
<path d="M522 449 c-18 -16 -32 -33 -30 -37 2 -4 18 9 37 30 40 46 38 48 -7 7z"/>
<path d="M132 160 c0 -19 2 -27 5 -17 2 9 2 25 0 35 -3 9 -5 1 -5 -18z"/>
</g>
</svg>
